<svg xmlns="http://www.w3.org/2000/svg" viewBox="0 0 459.24 459.24"><title>down</title><path d="M229.62,12a217.68,217.68,0,0,1,84.7,418.14,217.67,217.67,0,0,1-169.4-401A216.14,216.14,0,0,1,229.62,12m0-12C102.8,0,0,102.8,0,229.62S102.8,459.24,229.62,459.24s229.62-102.8,229.62-229.62S356.44,0,229.62,0Z" transform="translate(0)"/><path d="M343.43,184.47c.39-7.41-1.47-17.94-12-27.47a32.42,32.42,0,0,0-3.6-20.28c-5.61-10.11-16.67-17-32.87-20.43a119,119,0,0,0-24.62-2.22c-5.5,0-11.43.26-17.73.74a535,535,0,0,0-70.56,3.86l-12.44,1.48a22,22,0,0,0-12.7-4H124.62a22,22,0,0,0-22,22v86a22,22,0,0,0,22,22h32.29a21.81,21.81,0,0,0,10.48-2.65,56.77,56.77,0,0,0,10.37,15.57,6,6,0,0,0,.85.74c16.57,12.76,36.14,58.7,43.14,77.44-.74,5.82-1.43,18.42,4.45,25.25a13.27,13.27,0,0,0,10.21,4.66c4.13,0,18.13-1,27-13.09,8.37-11.54,8.78-28.79,1.37-51.34-6.24-19-6.83-27.37-6.61-30.76,2.85.64,5.66,1.22,8.31,1.7h0a166.16,166.16,0,0,0,26,3.33c19.8.95,34.09-2.49,42.51-10.16,11.49-10.48,10.16-24,6.72-32.56a32.23,32.23,0,0,0,6.88-18.21c.32-7.29-2.17-14.38-7.36-21A35.6,35.6,0,0,0,343.43,184.47Zm-218.81-54h32.29a7.73,7.73,0,0,1,7.72,7.73v86a7.72,7.72,0,0,1-7.72,7.73H124.62a7.74,7.74,0,0,1-7.73-7.73V138.11a7.74,7.74,0,0,1,7.73-7.73Zm203.1,70.81c4.61,4.77,6.82,9.58,6.58,14.3-.26,7-5.82,12.28-5.88,12.33a7.1,7.1,0,0,0-1.27,9.21c.69,1.11,6.78,11.49-1.8,19.32-10.11,9.21-39.22,7-55.47,3.49l-.69-.15c-2.91-.48-6-1.12-9.21-1.86A11.54,11.54,0,0,0,248.44,260c-7,6.24-6.3,20.43,2.59,47.37,5.83,17.68,6,31,.64,38.49-4.55,6.3-12.12,7.09-14.93,7.14-1.27-2.17-1.59-9.42-.69-15.35a6.71,6.71,0,0,0-.31-3.55c-1-2.75-24.24-66.32-48-85.17a44.19,44.19,0,0,1-9.85-18.15,22.18,22.18,0,0,0,1-6.57V138.11a22.82,22.82,0,0,0-.48-4.66l5.35-.63h.05c.37,0,34.81-4.5,68.81-3.76h.74c16-1.27,29-.9,38.59,1.17,12,2.54,19.85,7.09,23.4,13.44a18.67,18.67,0,0,1,1.43,13.66,7.22,7.22,0,0,0,2.43,8.15c7,5.24,10.37,11.38,10,18.31a21.84,21.84,0,0,1-2.44,8.84,7.14,7.14,0,0,0,1,8.63Z" transform="translate(0)"/></svg>