<svg xmlns="http://www.w3.org/2000/svg" viewBox="0 0 459.24 459.24"><defs><style>.a{fill:#00ff85;}</style></defs><title>up-clicked</title><path class="a" d="M229.62,12a217.68,217.68,0,0,1,84.7,418.14,217.67,217.67,0,0,1-169.4-401A216.14,216.14,0,0,1,229.62,12m0-12C102.8,0,0,102.8,0,229.62S102.8,459.24,229.62,459.24s229.62-102.8,229.62-229.62S356.44,0,229.62,0Z" transform="translate(0)"/><path class="a" d="M341.27,256.15c5.19-6.62,7.68-13.71,7.36-21a32.28,32.28,0,0,0-6.88-18.21c3.44-8.58,4.77-22.08-6.72-32.56-8.42-7.67-22.71-11.11-42.51-10.16a167.36,167.36,0,0,0-26,3.33h0c-2.65.48-5.46,1.06-8.31,1.7-.22-3.39.37-11.81,6.61-30.76,7.41-22.55,7-39.8-1.37-51.34-8.86-12.14-22.86-13.09-27-13.09a13.27,13.27,0,0,0-10.21,4.66c-5.88,6.83-5.19,19.43-4.45,25.25-7,18.74-26.57,64.68-43.14,77.44a6,6,0,0,0-.85.74,56.77,56.77,0,0,0-10.37,15.57,21.81,21.81,0,0,0-10.48-2.65H124.62a22,22,0,0,0-22,22v86a22,22,0,0,0,22,22h32.29a22,22,0,0,0,12.7-4l12.44,1.48a535,535,0,0,0,70.56,3.86c6.3.48,12.23.74,17.73.74A119,119,0,0,0,295,334.93c16.2-3.44,27.26-10.32,32.87-20.43a32.42,32.42,0,0,0,3.6-20.28c10.53-9.53,12.39-20.06,12-27.47A35.6,35.6,0,0,0,341.27,256.15ZM124.62,320.84a7.74,7.74,0,0,1-7.73-7.73V227a7.74,7.74,0,0,1,7.73-7.73h32.29a7.73,7.73,0,0,1,7.72,7.73v86a7.73,7.73,0,0,1-7.72,7.73H124.62ZM327.72,250a7.14,7.14,0,0,0-1,8.63,21.84,21.84,0,0,1,2.44,8.84c.37,6.93-3,13.07-10,18.31a7.22,7.22,0,0,0-2.43,8.15,18.67,18.67,0,0,1-1.43,13.66c-3.55,6.35-11.43,10.9-23.4,13.44-9.58,2.07-22.6,2.44-38.59,1.17h-.74c-34,.74-68.44-3.71-68.81-3.76h-.05l-5.35-.63a22.75,22.75,0,0,0,.48-4.66V227a22.18,22.18,0,0,0-1-6.57,44.19,44.19,0,0,1,9.85-18.15c23.76-18.85,47-82.42,48-85.17a6.71,6.71,0,0,0,.31-3.55c-.9-5.93-.58-13.18.69-15.35,2.81,0,10.38.84,14.93,7.14,5.4,7.47,5.19,20.81-.64,38.49-8.89,26.94-9.63,41.13-2.59,47.37A11.51,11.51,0,0,0,260,193.32c3.23-.74,6.3-1.38,9.21-1.86l.69-.15c16.25-3.55,45.36-5.72,55.47,3.49,8.58,7.83,2.49,18.21,1.8,19.32a7.1,7.1,0,0,0,1.27,9.21c.06,0,5.62,5.29,5.88,12.33.24,4.72-2,9.53-6.58,14.3Z" transform="translate(0)"/></svg>